<svg width="341" height="56" viewBox="0 0 341 56" fill="none" xmlns="http://www.w3.org/2000/svg">
<path d="M117.616 55.0903C116.655 55.0903 116.073 54.5061 116.073 53.5422V24.6241C116.073 23.6602 116.655 23.1344 117.616 23.1344H123.525C129.261 23.1344 131.794 25.442 131.794 30.1449V32.4525C131.794 35.7532 130.571 37.9148 127.776 38.8495V39.2584C130.542 40.2224 131.794 42.3839 131.794 45.6555V48.0507C131.794 52.8119 129.232 55.1195 123.525 55.1195H117.616V55.0903ZM123.525 36.834C125.505 36.834 126.204 35.7824 126.204 34.1467V30.1157C126.204 28.5383 125.505 27.4283 123.525 27.4283H121.662V36.834H123.525ZM123.525 50.7672C125.505 50.7672 126.204 49.6572 126.204 48.0215V43.9029C126.204 42.2671 125.505 41.1571 123.525 41.1571H121.662V50.738H123.525V50.7672Z" fill="#305B83"/>
<path d="M148.999 41.3616L153.366 52.9288C153.686 53.7175 153.453 55.0903 151.998 55.0903H149.319C148.533 55.0903 148.038 54.7398 147.835 54.068L143.526 42.2379H142.07V53.5422C142.07 54.5061 141.488 55.0903 140.527 55.0903H138.024C137.063 55.0903 136.481 54.5061 136.481 53.5422V24.6241C136.481 23.6602 137.063 23.1344 138.024 23.1344H144.283C149.96 23.1344 152.522 25.442 152.522 30.1449V35.169C152.464 38.2945 151.474 40.3684 148.999 41.3616ZM144.254 37.9148C146.204 37.9148 146.932 36.8048 146.932 35.169V30.1449C146.932 28.5675 146.175 27.4575 144.254 27.4575H142.041V37.9148H144.254Z" fill="#305B83"/>
<path d="M162.915 53.5422C162.915 54.5061 162.333 55.0903 161.372 55.0903H158.868C157.908 55.0903 157.325 54.5061 157.325 53.5422V24.6241C157.325 23.6602 157.908 23.1344 158.868 23.1344H161.372C162.333 23.1344 162.915 23.6602 162.915 24.6241V53.5422Z" fill="#305B83"/>
<path d="M182.362 38.3529C183.323 38.3529 183.905 38.8787 183.905 39.8426V48.4596C183.905 53.0456 181.343 55.2948 175.812 55.2948C170.281 55.2948 167.748 53.0456 167.748 48.4596V29.7359C167.748 25.1499 170.251 22.9007 175.812 22.9007C181.373 22.9007 183.905 25.1499 183.905 29.7359V32.6569C183.905 33.6209 183.323 34.2051 182.362 34.2051H179.859C178.898 34.2051 178.316 33.6209 178.316 32.6569V29.7359C178.316 28.2462 177.617 27.2238 175.812 27.2238C174.007 27.2238 173.337 28.2462 173.337 29.7359V48.4596C173.337 49.9493 174.007 50.9717 175.812 50.9717C177.617 50.9717 178.316 49.9493 178.316 48.4596V42.676H177.268C176.307 42.676 175.783 42.0918 175.783 41.1279V39.8426C175.783 38.8787 176.307 38.3529 177.268 38.3529H182.362Z" fill="#305B83"/>
<path d="M194.328 36.9216H199.306V24.6241C199.306 23.6602 199.888 23.1344 200.849 23.1344H203.353C204.313 23.1344 204.896 23.6602 204.896 24.6241V53.5422C204.896 54.5061 204.313 55.0903 203.353 55.0903H200.849C199.888 55.0903 199.306 54.5061 199.306 53.5422V41.2739H194.328V53.5422C194.328 54.5061 193.746 55.0903 192.785 55.0903H190.281C189.32 55.0903 188.738 54.5061 188.738 53.5422V24.6241C188.738 23.6602 189.32 23.1344 190.281 23.1344H192.785C193.746 23.1344 194.328 23.6602 194.328 24.6241V36.9216Z" fill="#305B83"/>
<path d="M219.569 27.4283V53.5422C219.569 54.5061 218.986 55.0903 218.026 55.0903H215.522C214.561 55.0903 213.979 54.5061 213.979 53.5422V27.4283H209.525C208.564 27.4283 207.982 26.8441 207.982 25.8802V24.5949C207.982 23.631 208.564 23.1052 209.525 23.1052H223.994C224.954 23.1052 225.537 23.631 225.537 24.5949V25.8802C225.537 26.8441 224.954 27.4283 223.994 27.4283H219.569Z" fill="#305B83"/>
<path d="M245.13 36.9216H250.108V24.6241C250.108 23.6602 250.69 23.1344 251.651 23.1344H254.155C255.115 23.1344 255.698 23.6602 255.698 24.6241V53.5422C255.698 54.5061 255.115 55.0903 254.155 55.0903H251.651C250.69 55.0903 250.108 54.5061 250.108 53.5422V41.2739H245.13V53.5422C245.13 54.5061 244.547 55.0903 243.587 55.0903H241.083C240.122 55.0903 239.54 54.5061 239.54 53.5422V24.6241C239.54 23.6602 240.122 23.1344 241.083 23.1344H243.587C244.547 23.1344 245.13 23.6602 245.13 24.6241V36.9216Z" fill="#305B83"/>
<path d="M276.688 29.7359V48.4596C276.688 53.0456 274.126 55.2948 268.594 55.2948C263.063 55.2948 260.53 53.0456 260.53 48.4596V29.7359C260.53 25.1499 263.034 22.9007 268.594 22.9007C274.155 22.9007 276.688 25.1499 276.688 29.7359ZM266.12 29.7359V48.4596C266.12 49.9493 266.789 50.9717 268.594 50.9717C270.399 50.9717 271.098 49.9493 271.098 48.4596V29.7359C271.098 28.2462 270.399 27.2238 268.594 27.2238C266.789 27.2238 266.12 28.2462 266.12 29.7359Z" fill="#305B83"/>
<path d="M290.546 49.0438C289.614 49.0438 289.148 48.5473 289.003 47.8462L286.412 32.0727H286.062L286.47 38.2945V53.5422C286.47 54.5061 285.888 55.0903 284.927 55.0903H283.093C282.132 55.0903 281.55 54.5061 281.55 53.5422V24.6241C281.55 23.6602 282.132 23.1344 283.093 23.1344H287.401C288.362 23.1344 288.799 23.631 288.973 24.5949L290.778 34.0882L291.827 41.6537H292.234L293.253 34.0882L295.087 24.5949C295.233 23.631 295.699 23.1344 296.659 23.1344H300.968C301.9 23.1344 302.511 23.6602 302.511 24.6241V53.5422C302.511 54.5061 301.929 55.0903 300.968 55.0903H299.105C298.144 55.0903 297.562 54.5061 297.562 53.5422V38.2945L297.969 32.0727H297.62L294.971 47.8462C294.883 48.5473 294.388 49.0438 293.486 49.0438H290.546Z" fill="#305B83"/>
<path d="M319.6 23.1052C320.561 23.1052 321.143 23.631 321.143 24.5949V25.8802C321.143 26.8441 320.561 27.4283 319.6 27.4283H312.962V36.9216H317.941C318.901 36.9216 319.484 37.4474 319.484 38.4113V39.6966C319.484 40.6605 318.901 41.2447 317.941 41.2447H312.962V50.738H319.6C320.561 50.738 321.143 51.2638 321.143 52.2277V53.513C321.143 54.4769 320.561 55.0611 319.6 55.0611H308.916C307.955 55.0611 307.373 54.4769 307.373 53.513V24.5949C307.373 23.631 307.955 23.1052 308.916 23.1052H319.6Z" fill="#305B83"/>
<path d="M332.148 35.1106L337.068 39.6089C339.833 42.0918 340.445 44.1657 340.445 48.4304C340.445 53.0164 337.941 55.2656 332.381 55.2656C326.82 55.2656 324.316 53.0164 324.316 48.4304V44.9544C324.316 43.9905 324.84 43.4063 325.801 43.4063H328.363C329.324 43.4063 329.848 43.9905 329.848 44.9544V48.4304C329.848 49.9201 330.547 50.9425 332.352 50.9425C334.157 50.9425 334.855 49.9201 334.855 48.4304C334.855 45.9476 334.506 44.7791 332.614 43.0557L327.635 38.5574C324.87 36.0745 324.287 34.0006 324.287 29.7359C324.287 25.1499 326.791 22.9007 332.352 22.9007C337.912 22.9007 340.416 25.1499 340.416 29.7359V33.2119C340.416 34.1759 339.892 34.7016 338.931 34.7016H336.369C335.408 34.7016 334.884 34.1759 334.884 33.2119V29.7359C334.884 28.2462 334.186 27.2238 332.381 27.2238C330.576 27.2238 329.877 28.2462 329.877 29.7359C329.906 32.2188 330.255 33.3872 332.148 35.1106Z" fill="#305B83"/>
<path d="M66.1733 40.4561L52.6359 33.4456C52.4612 33.358 52.2866 33.358 52.1119 33.4456L38.5744 40.4268C38.3998 40.5145 38.2542 40.7189 38.2542 40.9234L38.2251 54.7398C38.2251 55.0611 37.9631 55.2948 37.6719 55.2948H0.582255C0.262015 55.2948 0.0291126 55.0319 0.0291126 54.7398L0 50.4167C0 50.0954 0.262015 49.8617 0.553143 49.8617H20.7283C20.9903 49.8617 21.2232 49.6572 21.2814 49.3944C22.3877 43.5231 25.037 38.2653 29.0546 33.8254C29.2583 33.5917 29.2583 33.2704 29.0546 33.0367L13.7995 17.7013C13.5666 17.4677 13.5666 17.1171 13.7995 16.9127L16.8563 13.8164C17.0892 13.5827 17.4386 13.5827 17.6715 13.8164L33.2177 29.4438C33.4215 29.6483 33.7126 29.6775 33.9455 29.5022C38.4289 26.2891 43.5818 24.3028 49.1424 23.7186C49.4335 23.6894 49.6664 23.4557 49.6664 23.1636V0.554993C49.6664 0.233681 49.9284 0 50.2195 0H54.5282C54.8485 0 55.0814 0.262891 55.0814 0.554993L55.1105 23.1929C55.1105 23.485 55.3434 23.7186 55.6054 23.7478C61.1368 24.3321 66.2607 26.2599 70.7732 29.5315C71.0061 29.7067 71.2972 29.6775 71.501 29.473L84.3397 16.5622L87.0763 13.8164C87.3092 13.5827 87.6586 13.6119 87.8915 13.8164L90.8901 16.9127C91.0939 17.1464 91.0939 17.4969 90.8901 17.7013L75.635 32.9783C75.4312 33.1827 75.4021 33.5332 75.6059 33.7669C79.5652 38.1485 82.2727 43.4355 83.379 49.3359C83.4372 49.5988 83.6701 49.8033 83.9322 49.8033H104.107C104.428 49.8033 104.66 50.0662 104.66 50.3583V54.6814C104.66 55.0027 104.398 55.2364 104.107 55.2364H67.0176C66.6974 55.2364 66.4645 54.9735 66.4645 54.6814V40.8942C66.4645 40.7482 66.348 40.5437 66.1733 40.4561ZM33.4215 38.7327C33.9164 39.054 34.4113 39.3169 34.9062 39.5798C35.0809 39.6674 35.2556 39.6674 35.4303 39.5798L52.1119 30.8459C52.2866 30.7583 52.4612 30.7583 52.6359 30.8459L69.3175 39.5798C69.4922 39.6674 69.696 39.6674 69.8707 39.5505L71.2972 38.7034C71.6757 38.4698 71.6757 37.9148 71.2681 37.7103L52.6359 27.7496C52.4612 27.662 52.2574 27.662 52.1119 27.7496L45.9982 31.0212C45.6488 31.1964 45.2121 30.992 45.183 30.583C45.1539 30.2909 44.921 30.0865 44.6299 30.0865H41.6895C41.3693 30.0865 41.1364 30.3493 41.1364 30.6414L41.1072 33.2704C41.1072 33.4748 40.9908 33.6793 40.8161 33.7669L33.4797 37.7103C33.0721 37.944 33.043 38.499 33.4215 38.7327Z" fill="#EBC543"/>
</svg>
