<svg width="64" height="44" viewBox="0 0 64 44" fill="none" xmlns="http://www.w3.org/2000/svg">
<path d="M4.66722 43.9466C4.45508 43.9466 4.33132 43.8221 4.33132 43.6086V37.4347C4.33132 37.2212 4.45508 37.1144 4.66722 37.1144H5.92242C7.14227 37.1144 7.69031 37.6126 7.69031 38.609V39.1072C7.69031 39.8188 7.42513 40.2814 6.84172 40.4772V40.5661C7.42513 40.7796 7.69031 41.2422 7.69031 41.9361V42.4521C7.69031 43.4662 7.14227 43.9644 5.92242 43.9644H4.66722V43.9466ZM5.92242 40.0501C6.34672 40.0501 6.48815 39.8188 6.48815 39.4808V38.6268C6.48815 38.2887 6.34672 38.0574 5.92242 38.0574H5.53349V40.0679H5.92242V40.0501ZM5.92242 43.0214C6.34672 43.0214 6.48815 42.7901 6.48815 42.4343V41.5625C6.48815 41.2066 6.34672 40.9753 5.92242 40.9753H5.53349V43.0214H5.92242Z" fill="#305B83"/>
<path d="M12.004 41.0109L12.9233 43.484C12.994 43.6619 12.9409 43.9466 12.6404 43.9466H12.0747C11.8979 43.9466 11.8095 43.8755 11.7565 43.7331L10.8371 41.2066H10.5366V43.6264C10.5366 43.8399 10.4129 43.9644 10.2007 43.9644H9.67034C9.4582 43.9644 9.33445 43.8399 9.33445 43.6264V37.4525C9.33445 37.239 9.4582 37.1322 9.67034 37.1322H10.9963C12.1984 37.1322 12.7465 37.6304 12.7465 38.6268V39.6943C12.7465 40.3704 12.5343 40.7974 12.004 41.0109ZM10.9963 40.2814C11.4029 40.2814 11.562 40.0501 11.562 39.6943V38.6268C11.562 38.2887 11.4029 38.0574 10.9963 38.0574H10.5189V40.2992H10.9963V40.2814Z" fill="#305B83"/>
<path d="M15.6281 43.6086C15.6281 43.8221 15.5044 43.9466 15.2922 43.9466H14.7619C14.5497 43.9466 14.426 43.8221 14.426 43.6086V37.4347C14.426 37.2212 14.5497 37.1144 14.7619 37.1144H15.2922C15.5044 37.1144 15.6281 37.2212 15.6281 37.4347V43.6086Z" fill="#305B83"/>
<path d="M20.4191 40.3704C20.6312 40.3704 20.755 40.4771 20.755 40.6907V42.5233C20.755 43.5018 20.207 43.9822 19.0225 43.9822C17.838 43.9822 17.3076 43.5018 17.3076 42.5233V38.52C17.3076 37.5414 17.838 37.0611 19.0225 37.0611C20.207 37.0611 20.755 37.5414 20.755 38.52V39.1427C20.755 39.3562 20.6312 39.4808 20.4191 39.4808H19.8887C19.6766 39.4808 19.5528 39.3562 19.5528 39.1427V38.52C19.5528 38.1998 19.4114 37.9863 19.0225 37.9863C18.6335 37.9863 18.4921 38.1998 18.4921 38.52V42.5233C18.4921 42.8435 18.6335 43.057 19.0225 43.057C19.4114 43.057 19.5528 42.8435 19.5528 42.5233V41.2956H19.323C19.1109 41.2956 19.0048 41.171 19.0048 40.9575V40.6907C19.0048 40.4771 19.1109 40.3704 19.323 40.3704H20.4191Z" fill="#305B83"/>
<path d="M23.619 40.0679H24.6797V37.4347C24.6797 37.2212 24.8035 37.1144 25.0156 37.1144H25.546C25.7581 37.1144 25.8819 37.2212 25.8819 37.4347V43.6086C25.8819 43.8221 25.7581 43.9466 25.546 43.9466H25.0156C24.8035 43.9466 24.6797 43.8221 24.6797 43.6086V40.9931H23.619V43.6086C23.619 43.8221 23.4952 43.9466 23.2831 43.9466H22.7527C22.5406 43.9466 22.4168 43.8221 22.4168 43.6086V37.4347C22.4168 37.2212 22.5406 37.1144 22.7527 37.1144H23.2831C23.4952 37.1144 23.619 37.2212 23.619 37.4347V40.0679Z" fill="#305B83"/>
<path d="M29.6475 38.0396V43.6086C29.6475 43.8221 29.5237 43.9466 29.3116 43.9466H28.7812C28.5691 43.9466 28.4453 43.8221 28.4453 43.6086V38.0396H27.5083C27.2962 38.0396 27.1724 37.9151 27.1724 37.7016V37.4347C27.1724 37.2212 27.2962 37.1144 27.5083 37.1144H30.5845C30.7966 37.1144 30.9204 37.2212 30.9204 37.4347V37.7016C30.9204 37.9151 30.7966 38.0396 30.5845 38.0396H29.6475Z" fill="#305B83"/>
<path d="M36.4008 40.0679H37.4615V37.4347C37.4615 37.2212 37.5853 37.1144 37.7974 37.1144H38.3278C38.5399 37.1144 38.6637 37.2212 38.6637 37.4347V43.6086C38.6637 43.8221 38.5399 43.9466 38.3278 43.9466H37.7974C37.5853 43.9466 37.4615 43.8221 37.4615 43.6086V40.9931H36.4008V43.6086C36.4008 43.8221 36.2771 43.9466 36.0649 43.9466H35.5345C35.3224 43.9466 35.1986 43.8221 35.1986 43.6086V37.4347C35.1986 37.2212 35.3224 37.1144 35.5345 37.1144H36.0649C36.2771 37.1144 36.4008 37.2212 36.4008 37.4347V40.0679Z" fill="#305B83"/>
<path d="M43.7729 38.5378V42.541C43.7729 43.5196 43.2248 44 42.0404 44C40.8559 44 40.3255 43.5196 40.3255 42.541V38.5378C40.3255 37.5592 40.8559 37.0789 42.0404 37.0789C43.2248 37.0789 43.7729 37.5592 43.7729 38.5378ZM41.5277 38.5378V42.541C41.5277 42.8613 41.6691 43.0748 42.058 43.0748C42.447 43.0748 42.5884 42.8613 42.5884 42.541V38.5378C42.5884 38.2175 42.447 38.004 42.058 38.004C41.6691 38.004 41.5277 38.2175 41.5277 38.5378Z" fill="#305B83"/>
<path d="M47.3794 42.6478C47.1849 42.6478 47.0788 42.541 47.0435 42.3987L46.4954 39.036H46.4247L46.5131 40.3704V43.6264C46.5131 43.8399 46.3894 43.9644 46.1772 43.9644H45.7883C45.5761 43.9644 45.4524 43.8399 45.4524 43.6264V37.4525C45.4524 37.239 45.5761 37.1322 45.7883 37.1322H46.7076C46.9197 37.1322 47.0081 37.239 47.0435 37.4347L47.4324 39.463L47.6622 41.0821H47.7506L47.9628 39.463L48.3517 37.4347C48.3871 37.2212 48.4755 37.1322 48.6876 37.1322H49.6069C49.8014 37.1322 49.9428 37.239 49.9428 37.4525V43.6264C49.9428 43.8399 49.8191 43.9644 49.6069 43.9644H49.218C49.0058 43.9644 48.8821 43.8399 48.8821 43.6264V40.3704L48.9705 39.036H48.8998L48.334 42.3987C48.3164 42.541 48.2103 42.6478 48.0158 42.6478H47.3794Z" fill="#305B83"/>
<path d="M54.2211 37.1144C54.4333 37.1144 54.557 37.2212 54.557 37.4347V37.7016C54.557 37.9151 54.4333 38.0396 54.2211 38.0396H52.8068V40.0679H53.8675C54.0797 40.0679 54.2034 40.1747 54.2034 40.3882V40.6551C54.2034 40.8686 54.0797 40.9931 53.8675 40.9931H52.8068V43.0214H54.2211C54.4333 43.0214 54.557 43.1282 54.557 43.3417V43.6086C54.557 43.8221 54.4333 43.9466 54.2211 43.9466H51.9405C51.7284 43.9466 51.6046 43.8221 51.6046 43.6086V37.4347C51.6046 37.2212 51.7284 37.1144 51.9405 37.1144H54.2211Z" fill="#305B83"/>
<path d="M57.5447 39.6765L58.5878 40.6373C59.1712 41.171 59.3126 41.6158 59.3126 42.5233C59.3126 43.5018 58.7823 43.9822 57.5978 43.9822C56.4133 43.9822 55.8829 43.5018 55.8829 42.5233V41.776C55.8829 41.5625 55.989 41.4379 56.2011 41.4379H56.7492C56.9613 41.4379 57.0674 41.5625 57.0674 41.776V42.5233C57.0674 42.8435 57.2088 43.057 57.5978 43.057C57.9867 43.057 58.1281 42.8435 58.1281 42.5233C58.1281 41.9895 58.0574 41.7404 57.6508 41.3668L56.5901 40.406C56.0067 39.8722 55.8829 39.4274 55.8829 38.52C55.8829 37.5414 56.4133 37.0611 57.5978 37.0611C58.7823 37.0611 59.3126 37.5414 59.3126 38.52V39.2673C59.3126 39.4808 59.2066 39.5875 58.9944 39.5875H58.4464C58.2342 39.5875 58.1281 39.4808 58.1281 39.2673V38.52C58.1281 38.1998 57.9867 37.9863 57.5978 37.9863C57.2088 37.9863 57.0674 38.1998 57.0674 38.52C57.0674 39.0538 57.1558 39.3207 57.5447 39.6765Z" fill="#305B83"/>
<path d="M40.1841 24.6421L31.9634 20.372C31.8573 20.3186 31.7513 20.3186 31.6452 20.372L23.4245 24.6243C23.3184 24.6777 23.23 24.8023 23.23 24.9268L23.2124 33.3425C23.2124 33.5382 23.0533 33.6805 22.8765 33.6805H0.353577C0.15911 33.6805 0.0176789 33.5204 0.0176789 33.3425L0 30.7093C0 30.5135 0.15911 30.3712 0.335899 30.3712H12.5874C12.7465 30.3712 12.8879 30.2467 12.9233 30.0865C13.5951 26.5103 15.2038 23.3077 17.6435 20.6033C17.7673 20.461 17.7673 20.2653 17.6435 20.1229L8.37979 10.782C8.23836 10.6397 8.23836 10.4262 8.37979 10.3017L10.2361 8.41569C10.3775 8.27335 10.5896 8.27335 10.7311 8.41569L20.1716 17.9345C20.2953 18.059 20.4721 18.0768 20.6136 17.9701C23.3361 16.0129 26.4653 14.8031 29.8419 14.4472C30.0187 14.4294 30.1602 14.2871 30.1602 14.1092V0.338051C30.1602 0.142337 30.3193 0 30.4961 0H33.1125C33.307 0 33.4484 0.16013 33.4484 0.338051L33.4661 14.127C33.4661 14.3049 33.6075 14.4472 33.7667 14.465C37.1256 14.8209 40.2371 15.9951 42.9773 17.9879C43.1188 18.0946 43.2956 18.0768 43.4193 17.9523L51.2157 10.1237L52.8775 8.45127C53.0189 8.30894 53.2311 8.32673 53.3725 8.45127L55.1935 10.3372C55.3172 10.4796 55.3172 10.6931 55.1935 10.8176L45.9297 20.1229C45.806 20.2475 45.7883 20.461 45.912 20.6033C48.3164 23.2721 49.9605 26.4925 50.6323 30.0865C50.6677 30.2467 50.8091 30.3712 50.9682 30.3712H63.2197C63.4141 30.3712 63.5556 30.5313 63.5556 30.7093V33.3425C63.5556 33.5382 63.3964 33.6805 63.2197 33.6805H40.6968C40.5023 33.6805 40.3609 33.5204 40.3609 33.3425V24.9446C40.3609 24.8201 40.2902 24.6955 40.1841 24.6421ZM20.2953 23.5924C20.5959 23.7881 20.8964 23.9482 21.197 24.1084C21.303 24.1617 21.4091 24.1617 21.5152 24.1084L31.6452 18.7885C31.7513 18.7351 31.8573 18.7351 31.9634 18.7885L42.0934 24.1084C42.1995 24.1617 42.3232 24.1617 42.4293 24.0906L43.2956 23.5746C43.5254 23.4323 43.5254 23.0942 43.2779 22.9697L31.9634 16.9025C31.8573 16.8492 31.7336 16.8492 31.6452 16.9025L27.9326 18.8953C27.7205 19.002 27.4553 18.8775 27.4376 18.6284C27.4199 18.4505 27.2785 18.3259 27.1017 18.3259H25.3162C25.1217 18.3259 24.9803 18.486 24.9803 18.664L24.9626 20.2653C24.9626 20.3898 24.8919 20.5144 24.7858 20.5677L20.3307 22.9697C20.0832 23.112 20.0655 23.4501 20.2953 23.5924Z" fill="#EBC543"/>
</svg>
