<svg preserveAspectRatio="xMidYMid meet" data-bbox="33 14 134.001 172" viewBox="33 14 134.001 172" height="200" width="200" xmlns="http://www.w3.org/2000/svg" data-type="color" role="presentation" aria-hidden="true" aria-label="">
    <g>
        <path d="M164.251 54.981L102.92 14.859s-.086 0-.086-.086A5.405 5.405 0 0 0 100 14a5.41 5.41 0 0 0-2.835.773s-.086 0-.086.086l-61.33 40.122C34.031 56.012 33 57.816 33 59.878v80.244c0 1.976 1.031 3.866 2.749 4.897l61.331 40.122s.086 0 .086.086c.858.515 1.803.773 2.834.773s1.976-.258 2.835-.773c0 0 .086 0 .086-.086l61.331-40.122c1.718-1.031 2.749-2.835 2.749-4.897V59.878c-.001-1.976-1.032-3.866-2.75-4.897zm-9.645 39.521c1.288 8.076 2.945 16.152 3.497 24.314s-.46 16.495-.552 24.657v2.32l-2.577 1.546v-.344c-.736-32.905-4.141-65.638-6.81-98.458l5.706 3.522c-.644 6.272-1.104 12.543-1.104 18.901-.092 7.819.644 15.723 1.84 23.542zm-9.596 59.194c-1.804-16.324-4.295-32.561-6.872-48.799-2.663-16.581-5.841-33.077-7.215-49.744-.515-6.186-.773-12.458-.945-18.643l16.664 10.911c.859 12.2 1.804 24.486 2.749 36.685 1.632 21.479 2.835 43.043 3.436 64.521l-7.817 5.069zM110.995 24.052l17.265 11.341c.258 15.894 1.89 31.359 4.381 46.995 3.779 24.056 7.903 48.112 10.737 72.34l-6.7 4.382c-.687-2.234-1.288-4.553-1.976-6.787-2.233-7.818-4.123-15.722-6.185-23.54-4.209-15.98-8.332-31.96-11.94-48.026-1.718-7.818-3.35-15.636-4.209-23.626-.859-7.732-1.117-15.55-1.288-23.283-.085-3.267-.085-6.531-.085-9.796zm-12.198-6.444a2.246 2.246 0 0 1 2.319 0l8.332 5.413a268.507 268.507 0 0 0 0 11.77c.086 8.076.515 16.152 1.46 24.228.859 7.818 2.491 15.465 4.209 23.111 3.608 16.152 7.731 32.132 11.94 48.112 2.062 7.818 3.951 15.636 6.185 23.455l1.804 6.444-4.123 2.663c-.429-1.461-.773-2.921-1.203-4.382-2.147-7.389-4.123-14.863-6.099-22.338-1.89-7.475-4.037-14.863-7.044-22.08-2.835-6.701-6.271-13.231-9.019-20.018-3.608-8.849-6.786-17.87-9.019-27.149-2.233-9.451-2.835-19.331-2.835-29.039 0-6.272.344-12.629.859-18.987l2.234-1.203zm7.976 158.645a68.444 68.444 0 0 0-.76-6v.848c-.6-4.199-1.2-8.313-1.885-12.513-.514-3.428-1.457-6.77-2.314-10.113-.257-1.457-.685-3-1.028-4.457-.171-.686-.343-1.457-.6-2.143-.771-2.657-1.714-5.228-2.571-7.885-2.399-7.285-4.456-14.569-6.341-22.026-1.542-8.485-3.427-17.055-7.712-24.511-4.284-7.542-13.11-14.569-22.193-11.227-8.569 3.085-13.71 12.684-16.966 20.397-4.113 9.513-6.084 19.797-7.969 29.996V96.156c4.593-10.662 14.04-18.03 22.707-25.572 4.333-3.814 8.407-8.062 10.227-13.696 1.907-5.981.087-12.829-2.08-18.637l7.8-5.114v4.105c-.084 13.183-2.45 27.971 5.407 39.464 3.971 5.746 9.378 10.394 12.504 16.732 3.126 6.422 3.718 13.436 5.576 20.197 1.859 6.76 4.9 13.267 7.773 19.69 3.126 7.098 5.745 14.112 7.266 21.718 1.098 5.493 1.774 10.986 2.197 16.563l-8.871 5.831c-.167-.339-.167-.761-.167-1.184zM52.413 48.194l12.885-8.42.515 1.804c1.288 3.952 1.374 7.818.515 11.942-.773 3.866-2.405 7.475-4.467 10.739-1.117 1.805-2.578 3.351-3.952 4.812l-.352.341c-7.873 6.927-16.073 13.355-21.121 22.425v-6.272c.773-1.289 1.546-2.577 2.319-3.952 5.755-9.451 11.854-18.3 13.228-29.64.258-1.288.344-2.576.43-3.779zm64.509 115.812c-.945-7.475-2.577-14.777-5.154-21.822-2.577-6.959-5.927-13.574-8.59-20.448-2.062-5.241-3.436-10.567-4.553-16.152-1.031-5.069-2.491-10.052-4.896-14.691-2.577-4.983-6.614-8.849-10.136-13.145-3.951-4.897-6.185-10.052-6.958-16.238-.687-5.499-.515-10.997-.429-16.496.086-4.21.086-8.42 0-12.629l6.185-4.038c.773 12.715 2.062 25.946 6.099 37.888 4.467 13.231 12.971 24.743 17.094 38.146 4.896 16.238 10.222 32.476 14.603 48.799 1.288 4.897 2.147 9.88 2.663 14.949l-5.154 3.351a117.468 117.468 0 0 0-.774-7.474zm6.184-6.701c-1.632-8.076-4.467-15.98-6.872-23.97-2.491-8.162-4.896-16.324-7.387-24.486-1.632-5.327-3.178-10.482-5.497-15.55-2.147-4.725-4.724-9.365-7.129-14.004-2.577-4.897-4.896-9.88-6.614-15.207-1.632-5.155-2.491-10.482-3.35-15.808-1.117-6.959-1.89-13.918-2.405-20.963L94.846 20.1c-1.288 13.489-1.203 27.063.859 40.294 2.062 13.574 6.958 26.719 12.283 39.263 3.006 6.959 6.7 13.66 9.277 20.791 2.663 7.303 4.467 14.863 6.356 22.424 1.804 6.959 3.951 13.918 5.841 20.877l-4.896 3.179c-.343-3.094-.772-6.359-1.46-9.623zM37.638 57.73l10.995-7.131c-.429 5.499-1.718 10.911-4.037 16.066-2.233 4.897-5.497 9.193-8.16 13.746V59.878c0-.859.429-1.718 1.202-2.148zm46.041 114.838v.347l-10.308-6.758v-.866c0-3.812 0-7.277-1.906-10.656-.953-1.646-2.512-3.379-4.331-4.418-1.299-1.213-2.858-2.166-4.591-2.599-4.244-1.126-8.229.866-11.607 3.899l-8.402-5.458c.693-1.819 1.473-3.552 2.252-5.285 3.898-8.577 9.788-19.06 19.836-21.053 11.087-2.253 16.544 8.404 18.537 17.414 2.513 11.521.867 23.65.52 35.433zm-12.455-8.218l-18.21-11.942c2.147-1.804 4.724-3.265 7.473-3.437 6.356-.43 9.792 7.217 10.479 12.372a17.75 17.75 0 0 1 .258 3.007zm30.236 18.042c-.687.43-1.632.43-2.319 0L85.913 173.8c.086-5.327.344-10.653.601-15.98.258-4.983.344-9.88-.172-14.777-.773-8.162-3.006-17.784-10.136-22.681-6.528-4.553-14.946-2.062-20.529 2.663-6.614 5.67-10.565 14.176-13.744 22.166l-4.209-2.749s-.086 0-.086-.086a2.315 2.315 0 0 1-1.203-2.062v-4.296c.429-1.976.773-3.952 1.203-5.928 2.405-12.458 4.553-25.259 10.308-36.685 3.951-7.904 11.253-18.3 21.474-15.808 11.338 2.835 15.977 16.238 18.468 26.118.429 1.804.859 3.522 1.203 5.327 0 .172 0 .344.086.515.258 1.89.687 3.78 1.117 5.67 1.288 7.303 2.491 14.605 4.553 21.822 3.35 11.598 7.731 22.939 9.706 34.795.172.859.258 1.718.429 2.577.258 1.89.429 3.694.601 5.584l-4.123 2.407zm62.104-42.27c0 .859-.429 1.632-1.203 2.062 0 0-.086 0-.086.086l-3.522 2.32c0-1.632 0-3.351.086-4.983.258-2.921.601-5.842.859-8.763.429-5.584.172-11.083-.258-16.581-.859-11.341-2.577-22.595-3.35-33.936-.601-8.763-.172-17.441.687-26.118l5.497 3.608s.086 0 .086.086a2.315 2.315 0 0 1 1.203 2.062v80.157z" fill="#AA7D44" data-color="1"></path>
    </g>
</svg>