<?xml version="1.0" encoding="UTF-8"?>
<svg version="1.1" xmlns="http://www.w3.org/2000/svg" width="960" height="260">
<path d="M0 0 C3.12813702 2.10967381 4.31095599 3.2946653 5.6875 6.8125 C6.79171191 13.69678411 5.21196465 19.86877319 1.6875 25.8125 C-1.72739511 30.07406332 -5.45606152 33.95221021 -9.3125 37.8125 C-10.22515625 38.73933594 -11.1378125 39.66617188 -12.078125 40.62109375 C-14.47389289 43.03479403 -16.88924136 45.42645864 -19.3125 47.8125 C-20.08335937 48.58335938 -20.85421875 49.35421875 -21.6484375 50.1484375 C-23.70262788 52.20262788 -25.76307298 54.24974428 -27.828125 56.29296875 C-29.07295512 57.52860709 -30.31774615 58.76428482 -31.5625 60 C-32.19929688 60.62841797 -32.83609375 61.25683594 -33.4921875 61.90429688 C-34.09804688 62.50693359 -34.70390625 63.10957031 -35.328125 63.73046875 C-35.87758789 64.27469482 -36.42705078 64.8189209 -36.99316406 65.37963867 C-38.41976152 66.7963063 -38.41976152 66.7963063 -39.3125 68.8125 C-38.68085937 68.47476563 -38.04921875 68.13703125 -37.3984375 67.7890625 C-28.95484788 63.57943425 -19.25966674 60.44585281 -9.75 62.4375 C-4.91450575 64.3716977 -2.19179815 66.49355278 0.6875 70.8125 C2.63324139 87.34106106 -4.47156202 98.65538722 -13.3125 111.8125 C-17.19669393 117.69026816 -20.3125 122.5254546 -20.3125 129.8125 C-15.37094212 131.39335632 -11.89109268 129.95522554 -7.3125 127.8125 C5.57797303 119.99398866 15.18904144 108.36097342 21.625 94.8125 C28.82765835 80.00914165 40.71967871 70.2800771 55.6875 63.8125 C59.58320887 62.51393038 63.31280392 62.54925864 67.375 62.5 C68.15294922 62.47099609 68.93089844 62.44199219 69.73242188 62.41210938 C76.49509171 62.33878602 81.49145367 64.16558132 86.7109375 68.48828125 C90.33811712 72.88073287 92.77163767 76.88097595 92.64453125 82.8203125 C91.47658249 94.41165304 85.09255224 102.47083701 76.39453125 109.89453125 C67.34526903 116.30605758 54.89127291 121.8125 43.6875 121.8125 C45.16787317 126.95635955 45.16787317 126.95635955 48.6875 130.8125 C54.49598488 133.71674244 63.97814067 132.4125389 70.14453125 131.046875 C85.85812068 125.54421236 100.64799813 113.47153155 108.15234375 98.671875 C115.70304812 84.60796763 127.76076227 74.43239886 142.6875 68.8125 C154.58422828 65.38215504 164.62607564 65.76315439 176.6875 68.8125 C181.93587306 58.60837014 186.61084023 48.26023895 191.06518555 37.69067383 C201.9751029 11.86411402 201.9751029 11.86411402 209.6875 7.8125 C216.96456001 5.22167171 224.93331352 2.64205676 232.6875 3.8125 C235.25 5.4375 235.25 5.4375 236.6875 7.8125 C236.42668951 13.79251202 233.48716719 18.80826958 230.875 24.0625 C228.3301616 29.22691508 225.82166541 34.34361532 223.76953125 39.7265625 C221.41944128 45.74146983 218.30637046 51.29332018 215.1875 56.9375 C195.29346054 89.48183044 195.29346054 89.48183044 187.6875 125.8125 C188.3475 126.8025 189.0075 127.7925 189.6875 128.8125 C198.30909351 129.89019919 205.48471448 126.69802887 212.3125 121.5625 C218.73846085 116.23200172 224.07952668 110.81783823 228.75 103.875 C232.09861161 99.10636572 232.09861161 99.10636572 234.67578125 97.8203125 C236.5625 97.5 236.5625 97.5 239.6875 97.8125 C241.6875 99.8125 241.6875 99.8125 242.0625 102.9375 C241.1921983 111.93061752 235.33914538 118.12257886 229.6875 124.8125 C229.130625 125.50472656 228.57375 126.19695312 228 126.91015625 C217.66804058 139.40288603 199.99929909 153.46724181 183.36328125 155.1484375 C177.10293454 155.33403501 172.06736754 155.13199274 166.6875 151.8125 C163.26012707 148.19986367 160.6875 144.87219037 160.6875 139.8125 C157.3323046 141.59494756 154.69698501 143.67815997 151.9375 146.25 C143.75519954 153.5799775 134.93764278 155.20416397 124.234375 155.08203125 C117.08174306 154.53849424 112.58361053 152.11471306 107.75 146.875 C103.88801822 142.04975256 102.53951076 137.91857713 101.6875 131.8125 C97.8666391 133.14207901 95.29180538 134.7910766 92.25 137.4375 C77.8597306 149.13224696 61.30927824 156.19312324 42.57421875 155.2265625 C34.37399656 154.35297099 27.54099549 151.79189473 21.48046875 146.09375 C17.89842426 141.5362032 15.8128342 136.16608805 13.6875 130.8125 C13.006875 131.57433594 12.32625 132.33617187 11.625 133.12109375 C0.45993869 145.17559844 -14.00081757 154.55964057 -30.7578125 155.8125 C-36.40719004 155.8125 -41.41593335 154.98272198 -46.25 152 C-50.59235274 147.39447437 -52.27888171 143.166356 -52.3125 136.8125 C-51.52703219 124.60590565 -44.41650453 114.00246122 -37.2421875 104.5390625 C-32.61629938 98.0028886 -28.68115254 90.92285592 -28.3125 82.8125 C-29.69052761 83.04523355 -31.06487859 83.29975399 -32.4375 83.5625 C-33.20320313 83.70171875 -33.96890625 83.8409375 -34.7578125 83.984375 C-46.19110218 87.69057899 -55.11051362 100.08092788 -61.3125 109.8125 C-62.20286019 111.17204846 -63.09351087 112.5314067 -63.984375 113.890625 C-70.26227614 123.57091048 -75.99489428 133.44358953 -81.3034668 143.69042969 C-81.77051025 144.57633789 -82.23755371 145.46224609 -82.71875 146.375 C-83.32686523 147.55255859 -83.32686523 147.55255859 -83.94726562 148.75390625 C-85.52093324 151.12678989 -86.84937624 152.38253299 -89.3125 153.8125 C-92.97758083 154.44689056 -96.66067297 154.32205454 -100.375 154.3125 C-101.38111328 154.34085938 -102.38722656 154.36921875 -103.42382812 154.3984375 C-110.64516289 154.41773298 -110.64516289 154.41773298 -113.62109375 151.71875 C-114.53313909 147.88506788 -113.66997872 145.45625868 -112.3125 141.8125 C-113.3746875 142.35519531 -114.436875 142.89789063 -115.53125 143.45703125 C-116.95822284 144.17990565 -118.38531246 144.90254957 -119.8125 145.625 C-120.50859375 145.98142578 -121.2046875 146.33785156 -121.921875 146.70507812 C-136.07273304 153.84602038 -151.99115058 157.73273573 -167.75 153.75 C-175.18696585 151.09125335 -181.71076686 145.87189695 -185.3125 138.8125 C-186.14806296 136.15125612 -186.74585084 133.5513043 -187.3125 130.8125 C-190.77147386 132.27620831 -192.74031488 134.17251102 -195.25 136.9375 C-205.18940875 147.089429 -219.21246515 154.85926802 -233.625 155.0625 C-240.71409649 154.99105334 -244.6715919 154.10128702 -250.125 149.375 C-255.34567524 143.25935186 -255.65071852 136.09515117 -255.1484375 128.25 C-254.92098337 126.43036697 -254.62523783 124.61942966 -254.3125 122.8125 C-255.09625 122.9775 -255.88 123.1425 -256.6875 123.3125 C-264.08356974 124.33264755 -270.14621422 124.03712614 -277.3125 121.8125 C-277.85777344 122.57433594 -278.40304687 123.33617187 -278.96484375 124.12109375 C-289.33509065 138.32035489 -301.71343655 150.50461246 -319.53125 154.44921875 C-329.2751528 155.72194763 -339.20774089 156.06863487 -347.53125 150.265625 C-354.78275199 144.3278009 -357.02053123 137.96799399 -358.140625 128.78515625 C-358.84057765 112.60670512 -352.45886412 96.98605438 -342.0703125 84.6875 C-331.12152559 73.00879396 -315.80155063 63.00439232 -299.49365234 62.22338867 C-291.43504592 62.10128857 -284.99944001 62.93062355 -278.3125 67.8125 C-277.36375 68.4725 -276.415 69.1325 -275.4375 69.8125 C-267.64322509 80.81618223 -268.61982087 94.1174065 -270.3125 106.8125 C-265.21872081 109.03286529 -260.62542106 109.35324711 -255.3125 107.8125 C-249.5389189 104.84279902 -247.42038365 101.17467178 -244.6875 95.5625 C-244.31882812 94.83675781 -243.95015625 94.11101562 -243.5703125 93.36328125 C-242.13975277 90.53742206 -240.73726025 87.69939589 -239.36914062 84.84277344 C-236.62559201 79.18741282 -233.39419606 73.88847004 -230.0625 68.5625 C-229.49055908 67.64315674 -228.91861816 66.72381348 -228.3293457 65.77661133 C-224.11807246 59.03370562 -219.80697815 52.37090769 -215.3125 45.8125 C-216.29057309 44.6096042 -216.29057309 44.6096042 -218.12255859 44.73071289 C-219.28005615 44.75766235 -219.28005615 44.75766235 -220.4609375 44.78515625 C-221.30140625 44.79740234 -222.141875 44.80964844 -223.0078125 44.82226562 C-224.78654283 44.85726979 -226.56519878 44.8962971 -228.34375 44.93945312 C-229.18679688 44.95041016 -230.02984375 44.96136719 -230.8984375 44.97265625 C-232.05931885 44.99791382 -232.05931885 44.99791382 -233.24365234 45.02368164 C-235.3125 44.8125 -235.3125 44.8125 -238.3125 42.8125 C-238.8125 40.5 -238.8125 40.5 -238.3125 37.8125 C-234.15607183 32.18121022 -228.39561527 30.44735488 -221.6965332 29.40576172 C-218.94538184 29.10249306 -216.19214796 28.83197902 -213.4375 28.5625 C-205.66828782 27.66133052 -200.16591409 26.40429205 -193.81640625 21.59375 C-186.84912621 16.63730741 -177.83802723 13.8125 -169.3125 13.8125 C-166.75 15.25 -166.75 15.25 -165.3125 16.8125 C-165.6425 18.7925 -165.9725 20.7725 -166.3125 22.8125 C-158.53509737 22.37792452 -150.9974728 21.33465522 -143.36547852 19.82885742 C-138.95937915 18.98853761 -134.82327979 18.58724979 -130.3125 18.8125 C-129.3125 19.8125 -129.3125 19.8125 -129 23 C-129.57290772 29.98947419 -133.9961571 33.69777488 -138.921875 38.19921875 C-145.03180961 42.32242626 -151.01199646 43.26452011 -158.1875 43.32421875 C-158.99743408 43.34216995 -159.80736816 43.36012115 -160.6418457 43.37861633 C-163.19867935 43.43228525 -165.75533112 43.46647364 -168.3125 43.5 C-170.05861883 43.53321158 -171.80471379 43.56770473 -173.55078125 43.60351562 C-177.80455525 43.68798587 -182.05827941 43.75500195 -186.3125 43.8125 C-186.58562012 44.38887207 -186.85874023 44.96524414 -187.14013672 45.55908203 C-188.30890382 47.80558772 -189.6126323 49.79804958 -191.0703125 51.8671875 C-191.60954346 52.6396582 -192.14877441 53.41212891 -192.7043457 54.20800781 C-193.27628662 55.02624023 -193.84822754 55.84447266 -194.4375 56.6875 C-199.85435572 64.52680513 -204.77148179 72.42908177 -209.3125 80.8125 C-209.98303527 82.00075701 -210.65494181 83.18824111 -211.328125 84.375 C-218.31496442 96.86385076 -226.00837049 111.19921978 -225.3125 125.8125 C-224.3225 127.2975 -224.3225 127.2975 -223.3125 128.8125 C-216.20461094 130.20317395 -210.14756066 126.62018591 -204.3125 122.8125 C-200.31473362 119.47404114 -196.83707773 115.6377526 -193.3125 111.8125 C-192.44367188 110.95011719 -191.57484375 110.08773437 -190.6796875 109.19921875 C-185.98300575 104.4637855 -182.53217535 99.3678319 -179.5 93.4375 C-171.93020454 79.22201398 -158.85868598 69.01111309 -143.875 63.5625 C-133.44758102 61.3672539 -123.85211647 60.79180679 -114.4375 66.4375 C-110.15860995 69.5879748 -107.62368791 72.61984853 -106.3125 77.8125 C-105.36915394 85.18052919 -105.70059142 91.77116947 -110.3125 97.8125 C-114.94856746 102.73420195 -119.4407546 105.8038904 -126.3125 106.125 C-130.05300555 106.01207908 -132.39994146 105.29674111 -135.3125 102.8125 C-137.60729298 98.87856917 -137.77640988 95.29696214 -137.3125 90.8125 C-135.29385756 85.34152021 -132.23090553 82.71883054 -127.3125 79.8125 C-127.3125 79.4825 -127.3125 79.1525 -127.3125 78.8125 C-132.79350935 77.94707747 -136.30905515 79.9841654 -140.78515625 82.8515625 C-149.60774419 89.69690894 -156.23359997 100.85102711 -158.3125 111.8125 C-159.15067724 119.9481038 -159.15067724 119.9481038 -156.5 127.4375 C-152.11926428 132.19372735 -147.71988014 132.92676213 -141.5 133.25 C-129.49167375 133.12035545 -117.75760508 126.76078727 -108.3125 119.8125 C-106.90871094 118.79349609 -106.90871094 118.79349609 -105.4765625 117.75390625 C-96.02740116 110.49229048 -90.26020985 101.58293779 -84.3046875 91.42431641 C-78.98763863 82.43290224 -73.14059802 73.76968889 -67.3984375 65.046875 C-64.73692386 61.00339147 -62.11413915 56.93932133 -59.52734375 52.84765625 C-57.28692173 49.31340647 -55.00024479 45.85811659 -52.5 42.5 C-49.82617536 38.87973453 -47.19022313 35.23895395 -44.59472656 31.5625 C-17.7617585 -6.36742286 -17.7617585 -6.36742286 0 0 Z M-320.7421875 91.55859375 C-325.77412929 98.78105746 -328.44071748 105.4715099 -328.5625 114.25 C-328.58828125 115.36246094 -328.6140625 116.47492188 -328.640625 117.62109375 C-328.18149165 122.08671216 -326.592234 124.68788527 -323.25 127.625 C-318.00970812 129.74341587 -313.05060295 129.72927554 -307.6875 127.93359375 C-300.66257251 124.68884828 -293.18570055 119.28282142 -290.3125 111.8125 C-291.07017864 108.40294613 -292.4232582 105.58246375 -293.9375 102.4375 C-296.10505448 96.8993983 -295.4826504 90.96890819 -295.3203125 85.12890625 C-295.31773437 84.03449219 -295.31515625 82.94007812 -295.3125 81.8125 C-296.9165528 80.2084472 -298.59359457 80.52653016 -300.8125 80.4375 C-309.48512751 80.56121794 -315.39785691 85.00868161 -320.7421875 91.55859375 Z M50.96875 91.9609375 C47.22988268 97.36405673 45.23316551 102.26451387 44.6875 108.8125 C55.48924847 105.32144061 66.50129353 100.92166666 72.6875 90.8125 C73.63413958 87.89026478 73.74159748 85.95015408 73.6875 82.8125 C71.78704692 80.5227606 71.78704692 80.5227606 68.625 80.3125 C61.1694904 81.25923138 55.5485982 86.18524005 50.96875 91.9609375 Z M133.6875 100.8125 C129.20429458 107.33620155 126.47664028 112.31904015 126.3125 120.25 C126.27511719 120.93126953 126.23773437 121.61253906 126.19921875 122.31445312 C126.1045419 124.57020637 126.1045419 124.57020637 126.6875 127.8125 C129.08003651 129.89872561 130.69496184 130.68028233 133.828125 131.09765625 C140.91379085 130.34972485 146.28204188 127.87409249 150.92675781 122.33447266 C157.40507576 113.86378517 167.6875 99.71542122 167.6875 88.8125 C156.05279618 82.99514809 141.27022156 92.14894508 133.6875 100.8125 Z " fill="#F2EFE3" transform="translate(647.3125,34.1875)"/>
<path d="M0 0 C2 2 2 2 2 4.3125 C-0.34313535 10.60967624 -8.96047426 14.96134949 -14.25 18.8125 C-32.97516653 32.49779908 -32.97516653 32.49779908 -49.2421875 48.9375 C-50.4598404 50.36621273 -51.71858479 51.76052554 -53.0078125 53.125 C-59.67724319 60.20081177 -65.19304841 67.9526238 -70.63232422 75.98681641 C-71.8001255 77.70578988 -72.99323443 79.40752472 -74.19140625 81.10546875 C-84.17603993 96.0521628 -90.59411427 114.41363408 -94 132 C-94.28230469 133.33611328 -94.28230469 133.33611328 -94.5703125 134.69921875 C-96.46807694 149.27750013 -96.76312341 164.56943441 -88.9375 177.375 C-85.3836921 180.55074323 -81.64044314 182.42118598 -77.328125 184.41015625 C-75 186 -75 186 -74.046875 188.48828125 C-73.98616516 191.74131704 -75.23720375 193.3030395 -77.41015625 195.64453125 C-83.64836903 200.96310579 -92.17856376 201.40620786 -100.01171875 201.2578125 C-111.92585819 200.22992596 -119.21125132 194.46199372 -127 186 C-148.44780654 160.45388648 -150.07192461 121.53947262 -151 90 C-153.27896769 90.86468268 -153.27896769 90.86468268 -154.06225586 93.60668945 C-154.63278687 95.34245239 -154.63278687 95.34245239 -155.21484375 97.11328125 C-155.65239336 98.42386591 -156.09006147 99.73441101 -156.52783203 101.04492188 C-156.75714417 101.74029053 -156.9864563 102.43565918 -157.22271729 103.15209961 C-172.25413496 148.58392096 -172.25413496 148.58392096 -184 167 C-184.58136719 167.93328125 -185.16273438 168.8665625 -185.76171875 169.828125 C-194.11905006 182.52971012 -204.79711316 191.56813424 -219.6875 195.4375 C-231.93863298 197.50971766 -242.4361769 195.43160028 -252.84765625 188.828125 C-260.20318293 183.33168748 -263.7504658 174.91412042 -265.22485352 166.05395508 C-266.63244315 155.54636715 -266.08452035 145.92396317 -260 137 C-257.6875 137.16796875 -257.6875 137.16796875 -255 138 C-253.375 140.36328125 -253.375 140.36328125 -252 143.3125 C-249.8542422 147.55449812 -248.23105877 150.55043966 -244 153 C-237.30371668 155.05822603 -229.80408016 154.70684048 -223.28125 152.21484375 C-213.65011975 147.08593706 -207.67856842 137.97918942 -202 129 C-201.44530029 128.14559326 -201.44530029 128.14559326 -200.87939453 127.27392578 C-195.01448384 118.21321126 -190.50389474 108.78559626 -186.1796875 98.91015625 C-183.3727293 92.51955723 -180.22992351 86.31517036 -177.06103516 80.09863281 C-175.92505248 77.8517605 -174.81035258 75.59519672 -173.69921875 73.3359375 C-169.22235735 64.25216264 -164.59497937 55.26854447 -159.75 46.375 C-159.26692383 45.48731934 -158.78384766 44.59963867 -158.28613281 43.68505859 C-138.66269709 7.93709543 -138.66269709 7.93709543 -122 3 C-116.53307428 1.72583604 -112.29732283 1.80111128 -107 4 C-104 6.1875 -104 6.1875 -102 9 C-101.8125 12.5625 -101.8125 12.5625 -103 16 C-105.6875 18 -105.6875 18 -109 20 C-114.15055206 24.8147947 -116.92400379 30.43086658 -119.5625 36.875 C-119.94744629 37.80119141 -120.33239258 38.72738281 -120.72900391 39.68164062 C-129.95942397 62.33918797 -132.78869805 84.599654 -132 109 C-131.95359375 110.75957031 -131.95359375 110.75957031 -131.90625 112.5546875 C-131.45167259 120.94164074 -129.2014212 128.93153531 -127 137 C-126.60167969 135.9275 -126.20335937 134.855 -125.79296875 133.75 C-112.7977565 99.13665526 -96.98327477 68.71060582 -71 42 C-70.48373047 41.4632666 -69.96746094 40.9265332 -69.43554688 40.37353516 C-64.2902385 35.03535742 -59.1877385 29.74734952 -53.09375 25.4765625 C-51.49761463 24.35092972 -49.94170698 23.16802868 -48.40625 21.9609375 C-40.95529118 16.13236488 -33.17826214 11.49688729 -24.86450195 7.02172852 C-22.99951377 5.99973355 -21.16876722 4.92994547 -19.3359375 3.8515625 C-13.33974731 0.5234663 -6.81808279 -2.21587691 0 0 Z M-150 80 C-149 82 -149 82 -149 82 Z M-151 82 C-150 85 -150 85 -150 85 Z " fill="#F2EEE3" transform="translate(348,24)"/>
<path d="M0 0 C1.375 2.0625 1.375 2.0625 2 4 C1.34 4.66 0.68 5.32 0 6 C0 5.34 0 4.68 0 4 C-1.98 4.66 -3.96 5.32 -6 6 C-6 5.01 -6 4.02 -6 3 C-6.99 3 -7.98 3 -9 3 C-9.66 2.67 -10.32 2.34 -11 2 C-11 1.34 -11 0.68 -11 0 C-7.03498506 -1.04956278 -3.9631639 -1.14491402 0 0 Z " fill="#F5F4ED" transform="translate(480,49)"/>
<path d="M0 0 C2.11158563 0.17670173 4.21601247 0.44217313 6.3125 0.75 C7.46363281 0.90984375 8.61476563 1.0696875 9.80078125 1.234375 C12.97446406 1.99388883 14.60231086 2.84503988 17 5 C14 6 14 6 12 5.0625 C11.34 4.711875 10.68 4.36125 10 4 C9.01 4 8.02 4 7 4 C6.67 4.66 6.34 5.32 6 6 C5.34 5.01 4.68 4.02 4 3 C3.01 3.495 3.01 3.495 2 4 C1.67 3.34 1.34 2.68 1 2 C0.34 1.67 -0.32 1.34 -1 1 C-0.67 0.67 -0.34 0.34 0 0 Z " fill="#F7F6ED" transform="translate(515,96)"/>
<path d="M0 0 C1.2375 0.7425 1.2375 0.7425 2.5 1.5 C2.17 2.16 1.84 2.82 1.5 3.5 C0.675 3.005 -0.15 2.51 -1 2 C-5.25488188 0.17647919 -7.92308671 0.26326311 -12.5 0.5 C-12.5 1.16 -12.5 1.82 -12.5 2.5 C-14.81 2.83 -17.12 3.16 -19.5 3.5 C-14.34972567 -2.46347554 -6.92631691 -2.96842153 0 0 Z " fill="#F4F5EC" transform="translate(647.5,34.5)"/>
<path d="M0 0 C-2.33214148 1.20628008 -4.49642139 2.1654738 -7 3 C-7 2.34 -7 1.68 -7 1 C-13.93 2.485 -13.93 2.485 -21 4 C-21.33 3.34 -21.66 2.68 -22 2 C-19.46045692 1.46615306 -16.9193065 0.94769806 -14.375 0.4375 C-13.66214844 0.28603516 -12.94929687 0.13457031 -12.21484375 -0.02148438 C-7.83982036 -0.8844477 -4.41938826 -1.05256724 0 0 Z " fill="#F7F7EE" transform="translate(812,101)"/>
<path d="M0 0 C0.66 0.33 1.32 0.66 2 1 C1 4 1 4 -1 5 C-1 5.99 -1 6.98 -1 8 C-1.99 8.495 -1.99 8.495 -3 9 C-3 11.31 -3 13.62 -3 16 C-3.66 15.67 -4.32 15.34 -5 15 C-5.50026167 8.8717946 -4.28177721 5.97238972 -1 1 C-0.67 0.67 -0.34 0.34 0 0 Z " fill="#F5F5EC" transform="translate(515,117)"/>
<path d="M0 0 C0.66 0.66 1.32 1.32 2 2 C1.34 2 0.68 2 0 2 C0.33 2.99 0.66 3.98 1 5 C0.278125 5.4125 -0.44375 5.825 -1.1875 6.25 C-3.97969862 7.98736803 -6.47012585 9.90381857 -9 12 C-9.66 11.67 -10.32 11.34 -11 11 C-7.37 7.37 -3.74 3.74 0 0 Z " fill="#F6F5ED" transform="translate(751,141)"/>
<path d="M0 0 C2 1 2 1 4 4 C2.35 5.32 0.7 6.64 -1 8 C-1.625 5.6875 -1.625 5.6875 -2 3 C-1.34 2.01 -0.68 1.02 0 0 Z " fill="#ECEADD" transform="translate(596,123)"/>
<path d="M0 0 C5.78461538 4.43076923 5.78461538 4.43076923 6.875 7.3125 C6.936875 8.1478125 6.936875 8.1478125 7 9 C6.34 9 5.68 9 5 9 C4.34 8.34 3.68 7.68 3 7 C2.01 6.34 1.02 5.68 0 5 C-0.1875 2.375 -0.1875 2.375 0 0 Z " fill="#F8F7EC" transform="translate(368,102)"/>
<path d="M0 0 C6.70459519 5.0940919 6.70459519 5.0940919 7.9375 8.875 C7.958125 9.57625 7.97875 10.2775 8 11 C7.34 11 6.68 11 6 11 C4.4921875 9.35546875 4.4921875 9.35546875 2.875 7.1875 C2.06675781 6.12595703 2.06675781 6.12595703 1.2421875 5.04296875 C0 3 0 3 0 0 Z " fill="#F8F6ED" transform="translate(96,170)"/>
<path d="M0 0 C3.4375 1.1875 3.4375 1.1875 7 3 C7.9375 5.6875 7.9375 5.6875 8 8 C7.34 7.67 6.68 7.34 6 7 C6 6.01 6 5.02 6 4 C5.071875 3.7834375 5.071875 3.7834375 4.125 3.5625 C2 3 2 3 0 2 C0 1.34 0 0.68 0 0 Z " fill="#F5F6EF" transform="translate(266,207)"/>
<path d="M0 0 C0.66 0 1.32 0 2 0 C2 0.66 2 1.32 2 2 C2.66 2.33 3.32 2.66 4 3 C2.625 4.5 2.625 4.5 1 6 C0.34 6 -0.32 6 -1 6 C-1.042721 4.33388095 -1.04063832 2.66617115 -1 1 C-0.67 0.67 -0.34 0.34 0 0 Z " fill="#F5F6EB" transform="translate(812,131)"/>
<path d="M0 0 C-1.32 1.32 -2.64 2.64 -4 4 C-4.99 3.67 -5.98 3.34 -7 3 C-7 2.34 -7 1.68 -7 1 C-3.375 -1.125 -3.375 -1.125 0 0 Z " fill="#F7F6EB" transform="translate(787,107)"/>
<path d="M0 0 C2.475 0.99 2.475 0.99 5 2 C5 2.99 5 3.98 5 5 C5.66 5.66 6.32 6.32 7 7 C6.01 7.33 5.02 7.66 4 8 C2.68 5.36 1.36 2.72 0 0 Z " fill="#F6F5EA" transform="translate(393,176)"/>
<path d="M0 0 C0.66 0.66 1.32 1.32 2 2 C1.34 2 0.68 2 0 2 C-0.33 3.65 -0.66 5.3 -1 7 C-1.99 6.34 -2.98 5.68 -4 5 C-2.68 3.35 -1.36 1.7 0 0 Z " fill="#F9F8F0" transform="translate(767,117)"/>
<path d="M0 0 C0 1.65 0 3.3 0 5 C-1.9375 4.6875 -1.9375 4.6875 -4 4 C-4.33 3.01 -4.66 2.02 -5 1 C-2 0 -2 0 0 0 Z " fill="#F7F4EA" transform="translate(708,97)"/>
</svg>
